<?xml version="1.0" standalone="no"?>
<!DOCTYPE svg PUBLIC "-//W3C//DTD SVG 20010904//EN"
 "http://www.w3.org/TR/2001/REC-SVG-20010904/DTD/svg10.dtd">
<svg version="1.0" xmlns="http://www.w3.org/2000/svg"
 width="128.000000pt" height="128.000000pt" viewBox="0 0 128.000000 128.000000"
 preserveAspectRatio="xMidYMid meet">

<g transform="translate(0.000000,128.000000) scale(0.100000,-0.100000)"
fill="#FBDBE9" stroke="none">
<path d="M374 1159 c-34 -17 -57 -66 -51 -106 12 -74 89 -113 152 -78 93 49
61 196 -42 194 -21 0 -47 -5 -59 -10z"/>
<path d="M779 1141 c-49 -50 -36 -133 26 -166 63 -35 140 4 152 78 15 97 -108
158 -178 88z"/>
<path d="M383 735 c-33 -14 -63 -59 -63 -95 0 -37 30 -81 67 -96 68 -29 143
21 143 95 0 46 -23 79 -66 97 -40 17 -41 17 -81 -1z"/>
<path d="M814 736 c-91 -40 -84 -165 10 -196 64 -21 136 33 136 100 0 37 -30
81 -65 96 -41 17 -42 17 -81 0z"/>
<path d="M390 313 c-30 -11 -60 -47 -66 -81 -19 -99 105 -164 177 -93 78 79
-7 212 -111 174z"/>
<path d="M798 303 c-56 -36 -66 -117 -19 -164 72 -71 196 -6 177 93 -13 70
-99 109 -158 71z"/>
</g>
</svg>
