<?xml version="1.0" standalone="no"?>
<!DOCTYPE svg PUBLIC "-//W3C//DTD SVG 20010904//EN"
 "http://www.w3.org/TR/2001/REC-SVG-20010904/DTD/svg10.dtd">
<svg version="1.0" xmlns="http://www.w3.org/2000/svg"
 width="32.000000pt" height="32.000000pt" viewBox="0 0 32.000000 32.000000"
 preserveAspectRatio="xMidYMid meet">

<g transform="translate(0.000000,32.000000) scale(0.100000,-0.100000)"
fill="#FD016F" stroke="none">
<path d="M30 285 c0 -8 9 -19 19 -25 11 -5 29 -26 41 -45 12 -20 24 -34 27
-31 3 2 -7 22 -21 43 -14 20 -26 46 -26 55 0 11 -8 18 -20 18 -11 0 -20 -7
-20 -15z m30 -5 c0 -5 -4 -10 -10 -10 -5 0 -10 5 -10 10 0 6 5 10 10 10 6 0
10 -4 10 -10z"/>
<path d="M250 286 c0 -8 -3 -22 -7 -31 -6 -16 -4 -16 20 0 32 20 35 45 7 45
-11 0 -20 -6 -20 -14z m30 -6 c0 -5 -4 -10 -10 -10 -5 0 -10 5 -10 10 0 6 5
10 10 10 6 0 10 -4 10 -10z"/>
<path d="M126 232 c-10 -17 12 -24 35 -12 28 16 35 6 11 -16 -29 -28 -62 -86
-61 -109 0 -14 3 -12 11 10 16 46 55 92 82 97 17 4 23 1 19 -9 -3 -7 -9 -13
-14 -13 -13 0 -59 -84 -59 -108 0 -27 -10 -52 -21 -52 -5 0 -9 9 -9 21 0 22
-15 18 -29 -9 -10 -19 -4 -21 69 -21 56 0 79 2 77 9 -1 3 7 18 18 35 12 17 20
46 20 72 0 34 -6 49 -31 74 -32 32 -105 51 -118 31z m114 -72 c0 -12 -13 -28
-32 -40 -18 -11 -27 -20 -19 -20 8 0 26 10 39 23 l24 22 -4 -25 c-2 -16 -16
-32 -43 -47 -39 -22 -33 -33 6 -12 31 16 43 6 18 -16 -14 -13 -20 -15 -15 -5
4 9 1 8 -7 -3 -9 -11 -21 -15 -32 -11 -25 10 -14 75 20 119 29 40 45 44 45 15z"/>
<path d="M62 187 c-19 -22 -24 -65 -12 -101 15 -48 26 -45 33 7 2 23 8 51 12
62 3 11 -1 8 -10 -7 -8 -16 -20 -28 -25 -28 -13 0 -13 4 4 45 16 37 15 43 -2
22z"/>
</g>
</svg>
