<?xml version="1.0" standalone="no"?>
<!DOCTYPE svg PUBLIC "-//W3C//DTD SVG 20010904//EN"
 "http://www.w3.org/TR/2001/REC-SVG-20010904/DTD/svg10.dtd">
<svg version="1.0" xmlns="http://www.w3.org/2000/svg"
 width="192.000000pt" height="192.000000pt" viewBox="0 0 192.000000 192.000000"
 preserveAspectRatio="xMidYMid meet">

<g transform="translate(0.000000,192.000000) scale(0.100000,-0.100000)"
fill="#FD016F" stroke="none">
<path d="M755 1720 l-39 -40 -173 0 c-171 0 -174 0 -198 -25 -33 -32 -33 -78
0 -110 l24 -25 591 0 591 0 24 25 c16 15 25 36 25 55 0 19 -9 40 -25 55 -24
25 -27 25 -198 25 l-173 0 -39 40 -39 40 -166 0 -166 0 -39 -40z"/>
<path d="M402 812 l3 -549 29 -37 c51 -68 46 -67 541 -64 430 3 444 4 471 24
15 11 37 33 48 48 21 27 21 40 24 577 l2 549 -560 0 -560 0 2 -548z m373 363
l25 -24 0 -391 0 -391 -25 -24 c-32 -33 -78 -33 -110 0 l-25 24 0 391 0 391
25 24 c15 16 36 25 55 25 19 0 40 -9 55 -25z m480 0 l25 -24 0 -391 0 -391
-25 -24 c-32 -33 -78 -33 -110 0 l-25 24 0 391 0 391 25 24 c15 16 36 25 55
25 19 0 40 -9 55 -25z"/>
</g>
</svg>
